<svg width="14" height="14" viewBox="0 0 14 14" fill="none" xmlns="http://www.w3.org/2000/svg">
<g clip-path="url(#clip0_749_8642)">
<path opacity="0.987" fill-rule="evenodd" clip-rule="evenodd" d="M5.96022 0.06075C6.68522 -0.02025 7.11422 -0.02025 7.89322 0.06075C9.27215 0.264845 10.5504 0.902235 11.5432 1.88075C10.8723 2.51489 10.2103 3.15828 9.55722 3.81075C8.30655 2.75075 6.91055 2.50608 5.36922 3.07675C4.23855 3.59675 3.45122 4.43942 3.00722 5.60475C2.28166 5.06458 1.56555 4.51183 0.859219 3.94675C0.810131 3.92091 0.754067 3.91145 0.699219 3.91975C1.82122 1.75642 3.57455 0.46975 5.95922 0.05975" fill="#F44336"/>
<path opacity="0.997" fill-rule="evenodd" clip-rule="evenodd" d="M0.696252 3.92018C0.752919 3.91151 0.806585 3.92051 0.857252 3.94718C1.56358 4.51226 2.27969 5.06501 3.00525 5.60518C2.89108 6.05924 2.8191 6.52288 2.79025 6.99018C2.81492 7.44218 2.88659 7.88585 3.00525 8.32118L0.750252 10.1162C-0.231748 8.06418 -0.249748 5.99885 0.696252 3.92018Z" fill="#FFC107"/>
<path opacity="0.999" fill-rule="evenodd" clip-rule="evenodd" d="M11.436 12.2897C10.7339 11.6705 9.99884 11.0897 9.23405 10.5497C10.0007 10.0084 10.466 9.26574 10.63 8.32174H6.87305V5.71274C9.03971 5.69474 11.2054 5.71308 13.37 5.76774C13.7807 7.99774 13.3064 10.0084 11.947 11.7997C11.7854 11.9716 11.6142 12.1351 11.436 12.2897Z" fill="#448AFF"/>
<path opacity="0.993" fill-rule="evenodd" clip-rule="evenodd" d="M3.005 8.32129C3.825 10.3593 5.32833 11.3106 7.515 11.1753C8.12883 11.1042 8.71735 10.8898 9.233 10.5493C9.99833 11.0906 10.7323 11.6706 11.435 12.2893C10.3216 13.2897 8.90211 13.8834 7.408 13.9733C7.06854 14.0004 6.72746 14.0004 6.388 13.9733C3.84267 13.6733 1.96333 12.3873 0.75 10.1153L3.005 8.32129Z" fill="#43A047"/>
</g>
<defs>
<clipPath id="clip0_749_8642">
<rect width="13.512" height="13.9936" fill="white"/>
</clipPath>
</defs>
</svg>
